<svg width="79" height="79" viewBox="0 0 79 79" fill="none" xmlns="http://www.w3.org/2000/svg">
<g clip-path="url(#clip0_195_346)">
<path d="M78.4206 9.21338C78.3864 7.59131 78.2324 5.97398 77.9597 4.37462C77.8477 3.78775 77.5609 3.24845 77.1368 2.82754C76.697 2.53111 76.2059 2.31903 75.6885 2.20213C73.3843 1.7764 71.0604 1.49112 68.7167 1.34629C59.635 0.5925 44.7304 0 38.7428 0C36.9653 0 23.4761 0 13.5089 0.329167C10.564 0.430111 7.63547 0.704417 4.72344 1.15208C3.71095 1.27906 2.74183 1.63966 1.89261 2.20542C1.5397 2.55256 1.27942 2.9826 1.13552 3.45625C0.735481 5.29552 0.504105 7.16747 0.444274 9.04879C0.0163575 16.6822 0.0163574 29.6118 0.0163574 32.4723C0.0163574 35.336 0.444274 47.6732 0.872191 55.142C0.872191 57.5449 1.13552 59.4212 1.26719 60.3099C1.29484 60.762 1.45513 61.1959 1.72802 61.5575C2.66748 62.3232 3.81307 62.7929 5.01969 62.907C7.37323 63.144 9.73994 63.144 12.0935 62.907C14.6281 62.6766 16.8006 62.4791 18.6735 62.4791C23.7427 62.4791 23.3148 63.697 23.4794 64.3225C23.8514 66.1348 23.8514 68.0039 23.4794 69.8162C23.0034 72.4659 21.8718 74.9543 20.1877 77.0546C20.0562 77.2509 19.9829 77.4804 19.9764 77.7166C19.9699 77.9528 20.0304 78.186 20.151 78.3892C20.2715 78.5924 20.4472 78.7573 20.6575 78.8648C20.8679 78.9723 21.1045 79.0181 21.3398 78.9967C22.6235 78.9802 23.9073 78.8157 25.1581 78.503C28.4438 77.8941 31.5021 76.4036 34.0061 74.1909C35.2322 72.8213 36.3338 71.3452 37.2978 69.78C38.9436 67.1829 39.9278 64.78 40.8495 63.4666C41.1457 63.4666 41.9357 63.2362 42.7257 63.2362C48.1537 63.2362 60.8859 63.7958 65.4251 64.1579C67.8258 64.3225 70.2287 64.3225 72.6338 64.1579C74.0233 64.1361 75.3702 63.6752 76.4818 62.8412C77.5351 60.537 78.0717 58.0354 78.0618 55.5008C78.9835 46.949 78.9835 32.4394 78.9835 29.6118C78.9835 26.781 78.786 15.6617 78.4239 9.21338M75.1322 52.1795C75.1015 54.6921 74.915 57.1938 74.5726 59.6845C74.5726 60.0795 74.3422 60.5403 74.3093 60.7049C74.0485 60.8143 73.7717 60.881 73.4897 60.9024C72.5834 61.0341 71.6727 61.1109 70.7576 61.1328H65.955C61.9721 60.9024 51.7745 60.5403 45.5566 60.5732C43.9612 60.5359 42.3702 60.6018 40.7837 60.7707C40.2896 60.804 39.8237 61.013 39.4703 61.36C38.4169 62.5779 37.3636 65.4416 35.4544 68.5325C34.5657 69.9194 33.5464 71.2031 32.3965 72.3837C29.8749 74.6071 26.7471 76.0272 23.4135 76.4621C24.8228 73.9648 25.6761 71.1926 25.9152 68.335C26.6723 59.5825 21.5044 60.1091 18.9072 60.0762C16.9981 60.0762 14.7268 60.0762 12.0968 60.4383C10.2315 60.5787 8.36622 60.5787 6.50094 60.4383C5.49851 60.469 4.50755 60.2181 3.64048 59.7141L2.98215 32.4723C2.98215 30.1352 2.98215 22.0772 3.34423 15.0363C3.34423 11.3826 3.70632 7.99217 4.00257 5.88879C4.06401 5.4126 4.15179 4.94079 4.2659 4.47337C4.69382 4.47337 5.38507 4.47337 5.94465 4.30879C9.69203 3.89855 13.4587 3.68978 17.2285 3.68337C26.5077 3.48587 37.1661 3.68337 38.7132 3.68337C43.1899 3.68337 52.7291 4.07837 61.0208 4.57212C65.7608 4.86837 70.0696 5.19754 72.7984 5.52671L74.3455 5.79004C74.3652 6.17407 74.3652 6.5581 74.3455 6.94212C74.8722 12.538 75.1026 25.9252 75.0697 29.5789C75.2342 32.0806 75.4647 43.5948 75.1684 52.1795H75.1322Z" fill="#0D2A47"/>
<path d="M61.4126 23.0318C61.232 22.2648 60.9081 21.5389 60.458 20.8922C59.6409 19.7112 58.7152 18.6092 57.693 17.6006C56.7991 16.7096 55.7787 15.9554 54.6647 15.3622C53.9815 15.0302 53.213 14.9153 52.4625 15.0331C51.698 15.2832 50.9924 15.6864 50.3888 16.2181C49.1709 17.1726 47.4921 18.6539 46.3104 19.5097C45.9592 19.1258 45.5854 18.7631 45.1913 18.4235C44.6423 17.9825 44.059 17.5862 43.4467 17.2385V13.4563C43.3724 12.5909 43.1497 11.7446 42.7883 10.9547C42.4877 10.5764 42.1144 10.2621 41.6904 10.0303C41.2664 9.79851 40.8003 9.65394 40.3196 9.6051C38.7042 9.53855 37.0861 9.62673 35.4874 9.86843C34.4575 9.88691 33.432 10.0082 32.4262 10.2305C31.8509 10.374 31.3196 10.6566 30.8791 11.0534C30.5979 11.5172 30.4819 12.0624 30.5499 12.6005C30.5499 13.8184 30.9778 16.3201 31.2412 17.9659C30.3449 18.253 29.4749 18.6164 28.6408 19.0522C28.2053 19.2802 27.7968 19.5562 27.4228 19.8751C26.4145 18.7743 25.3144 17.7612 24.1345 16.8468C23.5074 16.5185 22.7979 16.3811 22.0936 16.4518C21.5599 16.5597 21.0751 16.8368 20.7111 17.2418C20.1845 17.8013 19.4932 18.7559 18.8053 19.4801C18.0036 20.3806 17.3483 21.4014 16.8632 22.5051C16.5205 23.139 16.3826 23.8634 16.4682 24.5789C16.6744 25.0433 17.0047 25.442 17.4228 25.731C18.4103 26.5539 20.7144 27.966 21.8665 29.0193C21.6558 29.7435 21.5571 30.5006 21.5703 31.2577C21.6032 31.8063 21.669 32.3549 21.7678 32.9035C20.3582 33.4089 19.0195 34.0938 17.7848 34.9411C17.2518 35.3076 16.8169 35.7995 16.5185 36.3734C16.22 36.9474 16.0671 37.5858 16.0732 38.2327C16.128 38.6716 16.2597 39.0886 16.4682 39.4836C16.929 40.4381 17.8836 41.554 18.2457 42.2453C18.802 43.4434 19.5327 44.5527 20.4182 45.5369C20.7326 45.8761 21.1149 46.1452 21.5403 46.3267C21.9657 46.5081 22.4245 46.598 22.8869 46.5903C23.7395 46.531 24.5591 46.2348 25.2569 45.7344C25.867 45.3219 26.4474 44.872 26.9982 44.3848C27.4195 44.7579 27.8694 45.098 28.3478 45.4053C29.2146 45.9275 30.1253 46.3664 31.0799 46.7219C30.878 47.9947 30.7463 49.2774 30.6849 50.5699C30.5763 51.6891 30.7343 52.8148 31.1457 53.8616C31.4169 54.17 31.7505 54.4173 32.1245 54.5869C32.4985 54.7566 32.9042 54.8449 33.3149 54.8458C35.81 54.9401 38.2996 54.8633 40.7837 54.6153C41.5298 54.5715 42.265 54.4508 42.9891 54.2533C43.4089 54.1399 43.7763 53.8842 44.0285 53.53C44.2806 53.1758 44.4019 52.7449 44.3716 52.3112L44.1741 47.7391C45.5129 47.1297 46.7639 46.3437 47.8937 45.402C48.9438 46.4882 50.29 47.7061 50.6521 48.0024C51.0667 48.3639 51.5806 48.5918 52.1268 48.6564C52.673 48.721 53.226 48.6193 53.7134 48.3645C55.1866 47.4007 56.5644 46.2985 57.828 45.0728C58.7108 44.3046 59.4266 43.3636 59.9313 42.3078C60.4547 41.2117 60.7016 40.0036 60.6555 38.789C60.5327 37.7902 60.0393 36.8739 59.273 36.2215C57.8751 35.0475 56.4158 33.9514 54.8951 32.9331C54.9757 32.2993 54.9757 31.6578 54.8951 31.024C54.8951 30.5522 54.8622 30.0804 54.7963 29.6086C56.5239 28.4792 58.1836 27.2493 59.7668 25.9252C60.2371 25.593 60.6285 25.1612 60.913 24.6605C61.1975 24.1599 61.368 23.6026 61.4126 23.0285M51.7384 27.3373C51.4073 27.5629 51.1621 27.8937 51.0426 28.2761C50.9231 28.6585 50.9363 29.07 51.08 29.444C51.3346 30.0452 51.4992 30.6707 51.5738 31.3202C51.6061 31.9218 51.528 32.5242 51.3434 33.0977C51.2453 33.4121 51.2364 33.7475 51.3178 34.0666C51.3991 34.3857 51.5675 34.6759 51.8042 34.9048C53.0221 36.0898 57.1038 39.184 57.0709 39.1511C57.0576 39.6691 56.9223 40.1766 56.6759 40.6323C56.401 41.2105 56.0086 41.7251 55.5238 42.1432C54.4705 43.032 52.9234 43.6903 52.4296 44.3157L49.8292 41.7482C49.6768 41.4792 49.4634 41.2496 49.2062 41.0781C48.9489 40.9066 48.6549 40.7979 48.348 40.7607C48.0438 40.728 47.7361 40.7675 47.4501 40.8762C47.1641 40.9849 46.9078 41.1596 46.7021 41.3861C46.0336 42.1291 45.2712 42.782 44.4342 43.3282C43.7042 43.8455 42.8917 44.2351 42.0313 44.4803C41.5869 44.5592 41.1858 44.7957 40.9017 45.1464C40.6175 45.497 40.4693 45.9384 40.4842 46.3895L40.6817 50.8628C38.6167 51.0735 36.5451 51.1723 34.467 51.1591C34.4604 49.4474 34.625 47.7358 34.9608 46.057C35.0259 45.8387 35.0468 45.6097 35.0223 45.3832C34.9978 45.1567 34.9283 44.9374 34.8179 44.7382C34.7076 44.5389 34.5585 44.3637 34.3796 44.2227C34.2006 44.0818 33.9953 43.978 33.7758 43.9174C32.7534 43.6299 31.7613 43.2441 30.8133 42.7653C30.0544 42.4554 29.3943 41.9444 28.9041 41.2874C28.7997 41.0683 28.6482 40.8751 28.4604 40.7214C28.2727 40.5678 28.0532 40.4575 27.8178 40.3986C27.5849 40.3306 27.3396 40.3159 27.1003 40.3558C26.8609 40.3957 26.6336 40.4891 26.4353 40.6291C25.7803 41.057 24.8257 42.0116 23.8711 42.7357C23.542 42.9991 23.2457 43.3282 22.9495 43.3282C22.6532 43.3282 22.752 43.1636 22.6532 43.0649C22.4501 42.8368 22.2631 42.5948 22.0936 42.3407C21.7315 41.7482 21.4353 41.1228 21.2049 40.7278L19.2628 37.8641C19.2628 37.8641 19.4274 37.6007 19.592 37.4361C19.9804 37.1004 20.3973 36.8041 20.8428 36.5474C21.9154 36.0104 23.0139 35.527 24.1345 35.0991C24.4897 34.9656 24.7785 34.6981 24.9385 34.354C25.0986 34.0099 25.1172 33.6167 24.9903 33.259C24.7494 32.569 24.6054 31.849 24.5624 31.1194C24.5063 30.4547 24.6196 29.7865 24.8915 29.1773C25.0024 28.9295 25.0397 28.6549 24.9988 28.3864C24.958 28.1179 24.8407 27.8669 24.6611 27.6632C24.0747 27.0667 23.4233 26.5378 22.719 26.0865C21.567 25.2636 20.1515 24.3748 19.4274 23.7494C19.4274 23.4531 19.6249 22.7619 19.8553 22.334C20.1186 21.8951 20.4149 21.4781 20.744 21.0831C21.3541 20.3063 22.0344 19.5942 22.7849 18.9468C23.1272 19.1795 23.4454 19.4428 23.7395 19.7368C24.8586 20.7243 26.0436 21.9752 26.8007 22.5677C27.0907 22.7618 27.4459 22.8328 27.7882 22.7652C27.9548 22.729 28.1115 22.6574 28.2479 22.5551C28.3842 22.4529 28.4969 22.3224 28.5782 22.1727C28.8425 21.7617 29.2044 21.4224 29.6315 21.1852C30.5642 20.6914 31.5286 20.2635 32.5249 19.9014C32.7818 19.8608 33.0124 19.7206 33.1664 19.511C33.3205 19.3015 33.3857 19.0396 33.3478 18.7823C33.3478 18.7823 32.9199 14.0423 32.6895 12.5643H33.3149C34.0918 12.5094 34.8708 12.5094 35.652 12.5643C36.9687 12.5643 38.2853 12.2022 39.4341 12.2351C39.6825 12.1961 39.9367 12.221 40.1728 12.3074C40.4089 12.3938 40.6191 12.5388 40.7837 12.7289V18.1601C40.7358 18.4381 40.7807 18.7242 40.9116 18.9741C41.0425 19.224 41.252 19.4238 41.5079 19.5426C42.1947 19.874 42.8311 20.2898 43.417 20.7902C43.9657 21.3037 44.4484 21.8742 44.8654 22.5018C44.9603 22.6536 45.0851 22.7844 45.2323 22.8863C45.3794 22.9881 45.5458 23.0589 45.7212 23.0943C46.0836 23.1647 46.4592 23.0941 46.7713 22.8968L52.8246 18.1239C53.2196 18.1239 53.5488 18.3543 53.9109 18.6177C54.4749 19.0566 55.0125 19.5284 55.5238 20.0331C56.0944 20.6519 56.632 21.2993 57.1367 21.9752C57.4549 22.3833 57.7292 22.8222 57.9596 23.2918C55.9846 24.7928 53.9109 26.1413 51.7384 27.3373Z" fill="#0D2A47"/>
<path d="M41.2445 26.814C40.9012 26.6973 40.5489 26.6092 40.1911 26.5506C34.8586 25.8265 33.2457 27.8344 32.459 30.3031C32.2302 30.9811 32.1475 31.6998 32.2164 32.412C32.2853 33.1242 32.5041 33.8137 32.8586 34.4353C33.2131 35.0568 33.6951 35.5963 34.273 36.0182C34.8509 36.4401 35.5115 36.7349 36.2115 36.8832C37.7158 37.2025 39.2826 36.9556 40.6191 36.1919C41.8106 35.4513 42.7981 34.421 43.4828 33.1965C43.795 32.641 43.9935 32.029 44.067 31.3961C44.1405 30.7632 44.0873 30.122 43.9107 29.5098C43.7309 28.8715 43.3919 28.2893 42.9255 27.8178C42.4592 27.3463 41.8808 27.0009 41.2445 26.814ZM40.6191 31.3894C40.1171 32.0088 39.4887 32.5138 38.7757 32.8706C38.2206 33.2306 37.5558 33.3822 36.8995 33.2985C35.3195 33.2985 35.0891 31.4223 35.6157 30.2044C36.5703 27.9331 38.1503 28.5915 40.3228 29.184C40.5159 29.28 40.6845 29.4189 40.8157 29.59C40.9469 29.7612 41.0373 29.9601 41.0799 30.1715C41.0859 30.6211 40.9212 31.0563 40.6191 31.3894Z" fill="#0D2A47"/>
</g>
<defs>
<clipPath id="clip0_195_346">
<rect width="79" height="79" fill="white"/>
</clipPath>
</defs>
</svg>
