<svg width="80" height="80" viewBox="0 0 80 80" fill="none" xmlns="http://www.w3.org/2000/svg">
<g clip-path="url(#clip0_195_350)">
<path d="M0.586243 9.33C0.620827 7.6874 0.776802 6.0496 1.0529 4.43C1.16634 3.83569 1.45683 3.28957 1.88624 2.86333C2.33165 2.56315 2.82899 2.34839 3.35291 2.23C5.68577 1.79355 8.04375 1.50409 10.4129 1.36333C19.6096 0.6 34.7029 0 40.7662 0C42.5662 0 56.2262 0 66.3196 0.333333C69.3018 0.435556 72.2674 0.713333 75.2162 1.16667C76.2416 1.29525 77.2229 1.66041 78.0829 2.23333C78.4403 2.58487 78.7039 3.02036 78.8496 3.5C79.2547 5.36256 79.489 7.25819 79.5496 9.16333C79.9829 16.8933 79.9829 29.9867 79.9829 32.8833C79.9829 35.7833 79.5496 48.2767 79.1162 55.84C79.1162 58.2733 78.8496 60.1733 78.7162 61.0733C78.6882 61.5312 78.5259 61.9706 78.2496 62.3367C77.2982 63.1121 76.1381 63.5878 74.9162 63.7033C72.5329 63.9433 70.1329 63.9433 67.7529 63.7033C65.1862 63.47 62.9862 63.27 61.0862 63.27C55.9596 63.27 56.3929 64.5033 56.2262 65.1367C55.8462 66.97 55.8462 68.8633 56.2262 70.7C56.7082 73.3832 57.8542 75.9031 59.5596 78.03C59.6928 78.2288 59.767 78.4612 59.7735 78.7003C59.7801 78.9395 59.7188 79.1757 59.5968 79.3814C59.4747 79.5872 59.2968 79.7542 59.0838 79.8631C58.8707 79.972 58.6312 80.0183 58.3929 79.9967C57.084 79.9789 55.7951 79.8122 54.5262 79.4967C51.1978 78.8807 48.0995 77.3713 45.5629 75.13C44.3213 73.7431 43.2058 72.2483 42.2296 70.6633C40.5629 68.0333 39.5662 65.6 38.6329 64.27C38.3329 64.27 37.5329 64.0367 36.7329 64.0367C31.2362 64.0367 18.3429 64.6033 13.7462 64.97C11.3151 65.1367 8.88179 65.1367 6.44624 64.97C5.03918 64.948 3.67518 64.4812 2.54957 63.6367C1.4829 61.3033 0.939568 58.77 0.94957 56.2033C0.0162354 47.5433 0.0162354 32.85 0.0162354 29.9867C0.0162354 27.12 0.216232 15.86 0.582901 9.33M3.91624 52.84C3.94734 55.3844 4.13624 57.9178 4.4829 60.44C4.4829 60.84 4.71623 61.3067 4.74957 61.4733C5.01369 61.5841 5.29396 61.6517 5.57957 61.6733C6.49734 61.8067 7.41957 61.8844 8.34624 61.9067H13.2096C17.2429 61.6733 27.5696 61.3067 33.8662 61.34C35.4818 61.3022 37.0929 61.3689 38.6996 61.54C39.1999 61.5737 39.6717 61.7854 40.0296 62.1367C41.0962 63.37 42.1629 66.27 44.0962 69.4C44.994 70.8044 46.0262 72.1044 47.1929 73.3C49.7464 75.5515 52.9138 76.9895 56.2896 77.43C54.8625 74.9011 53.9983 72.0937 53.7562 69.2C52.9896 60.3367 58.2229 60.87 60.8529 60.8367C62.7862 60.8367 65.0862 60.8367 67.7496 61.2033C69.6385 61.3456 71.5274 61.3456 73.4162 61.2033C74.4314 61.2344 75.4349 60.9804 76.3129 60.47L76.9796 32.8833C76.9796 30.5167 76.9796 22.3567 76.6129 15.2267C76.6129 11.5267 76.2462 8.09333 75.9462 5.96333C75.884 5.48111 75.7951 5.00333 75.6796 4.53C75.2462 4.53 74.5462 4.53 73.9796 4.36333C70.1848 3.9479 66.3704 3.73649 62.5529 3.73C53.1562 3.53 42.3629 3.73 40.7962 3.73C36.2629 3.73 26.6029 4.13 18.2062 4.63C13.4062 4.93 9.04291 5.26333 6.27957 5.59667L4.71291 5.86333C4.69068 6.25222 4.69068 6.64111 4.71291 7.03C4.17957 12.6967 3.94624 26.2533 3.97957 29.9533C3.8129 32.4867 3.57957 44.1467 3.87957 52.84H3.91624Z" fill="#0D2A47"/>
<path d="M16.21 48.8101H22.21V46.3767C21.91 43.5434 21.41 40.8467 21.0767 37.7801C20.8848 36.0977 20.8848 34.399 21.0767 32.7167C21.1387 32.1257 21.3181 31.5529 21.6043 31.0321C21.8905 30.5112 22.2777 30.0527 22.7434 29.6834C24.0092 29.2676 25.3454 29.1089 26.6734 29.2167C29.24 29.2167 32.6034 29.7167 34.07 29.9167L39.8 30.6167V27.4867C39.5867 25.2645 39.5867 23.0434 39.8 20.8234C39.918 20.1464 40.1742 19.501 40.5528 18.9275C40.9313 18.354 41.424 17.8647 42 17.4901C42.776 17.0096 43.6565 16.7238 44.5667 16.6567C45.9645 16.6901 47.3523 16.8345 48.73 17.0901L61.5567 19.2234V11.0601C61.5477 10.926 61.5658 10.7915 61.6099 10.6646C61.654 10.5377 61.7232 10.4209 61.8135 10.3214C61.9037 10.2218 62.0131 10.1415 62.135 10.0851C62.257 10.0288 62.3891 9.99757 62.5234 9.99339C62.6558 9.98423 62.7887 10.0025 62.9138 10.0469C63.0389 10.0914 63.1535 10.1611 63.2504 10.2518C63.3474 10.3425 63.4246 10.4522 63.4773 10.5741C63.53 10.6959 63.557 10.8273 63.5567 10.9601L64.9234 36.1501C65.1185 40.8426 64.9513 45.5432 64.4234 50.2101C63.9567 52.4101 62.4567 53.0101 61.6234 52.9101L48.2967 52.6101L33.8367 52.0434L16.2434 51.0434C15.9428 51.0434 15.6545 50.924 15.442 50.7114C15.2294 50.4989 15.11 50.2106 15.11 49.9101C15.11 49.6095 15.2294 49.3212 15.442 49.1087C15.6545 48.8961 15.9428 48.7767 16.2434 48.7767L16.21 48.8101ZM48.3634 48.8101H60.7567C61.3024 44.5121 61.5585 40.1824 61.5234 35.8501V21.4901L48.3967 20.5567H45.6634C45.0889 20.4883 44.5063 20.5569 43.9634 20.7567C43.7634 20.7567 43.73 21.1901 43.6634 21.4567C43.53 22.0478 43.4634 22.6478 43.4634 23.2567V27.6867C43.1634 32.9867 43.23 38.2501 43.0634 43.5134C43.0634 45.3801 42.8634 47.2801 42.73 49.1434L48.3634 48.8101ZM33.7367 48.8101H40.4V45.4767C40.4 41.2134 40.0334 36.9501 39.8667 32.6834H33.8C31.9034 32.6834 24.14 32.8834 24.1734 32.9167L24.4067 37.3834C24.4067 40.4834 24.64 43.2134 24.64 46.0767V48.6767L33.7367 48.8101Z" fill="#0D2A47"/>
</g>
<defs>
<clipPath id="clip0_195_350">
<rect width="80" height="80" fill="white" transform="matrix(-1 0 0 1 80 0)"/>
</clipPath>
</defs>
</svg>
