<svg width="498" height="75" viewBox="0 0 498 75" fill="none" xmlns="http://www.w3.org/2000/svg">
<path d="M14.6999 29.5V20.14C14.6999 19.516 14.5559 19.076 14.2679 18.82C13.9959 18.548 13.6039 18.412 13.0919 18.412H8.62788V15.796H14.0279C14.8279 15.796 15.5399 15.948 16.1639 16.252C16.7879 16.556 17.2759 17.036 17.6279 17.692C17.9959 18.348 18.1799 19.22 18.1799 20.308V27.268V29.5H14.6999ZM7.16388 29.5V26.908H16.9319L16.8599 29.5H7.16388ZM6.41988 29.5V17.908V15.796H9.89988V18.1V29.5H6.41988ZM20.815 29.5V18.604L20.551 15.796H24.007L24.295 18.604V29.5H20.815ZM26.2819 29.5V26.908H30.1219C30.7619 26.908 31.2819 26.764 31.6819 26.476C32.0819 26.188 32.3699 25.788 32.5459 25.276C32.7379 24.764 32.8339 24.188 32.8339 23.548V21.748C32.8339 21.108 32.7379 20.54 32.5459 20.044C32.3699 19.532 32.0819 19.132 31.6819 18.844C31.2819 18.556 30.7619 18.412 30.1219 18.412H26.2819V15.796H31.0579C32.2259 15.796 33.1939 16.052 33.9619 16.564C34.7459 17.076 35.3299 17.796 35.7139 18.724C36.1139 19.636 36.3139 20.708 36.3139 21.94V23.356C36.3139 24.604 36.1139 25.692 35.7139 26.62C35.3299 27.532 34.7459 28.244 33.9619 28.756C33.1939 29.252 32.2259 29.5 31.0579 29.5H26.2819ZM38.6744 24.46V22.348V18.604L38.4104 15.796H41.8664L42.1544 18.604V22.348L42.1304 23.86L38.6744 24.46ZM46.0373 29.74L44.7173 18.412L48.0293 16.852L49.0853 26.668C49.7733 26.604 50.3653 26.5 50.8613 26.356C51.3733 26.196 51.7973 25.98 52.1333 25.708C52.4693 25.42 52.7253 25.084 52.9013 24.7C53.0933 24.3 53.2293 23.836 53.3093 23.308C53.3893 22.78 53.4133 22.18 53.3813 21.508V20.788C53.3813 20.292 53.3013 19.876 53.1413 19.54C52.9973 19.188 52.7813 18.916 52.4933 18.724C52.2213 18.516 51.8933 18.412 51.5093 18.412H44.7173L44.4053 15.796H51.7733C53.3573 15.796 54.5733 16.244 55.4213 17.14C56.2853 18.036 56.7413 19.252 56.7893 20.788L56.8133 21.58C56.8613 23.068 56.6373 24.324 56.1413 25.348C55.6613 26.356 54.9413 27.172 53.9813 27.796C53.0373 28.42 51.8933 28.892 50.5493 29.212C49.2053 29.516 47.7013 29.692 46.0373 29.74ZM65.3493 29.74L63.7413 15.796H67.2213L68.3973 26.668C69.2613 26.588 69.9893 26.42 70.5813 26.164C71.1733 25.892 71.6453 25.548 71.9973 25.132C72.3493 24.7 72.5973 24.196 72.7413 23.62C72.9013 23.044 72.9733 22.404 72.9573 21.7V20.932C72.9573 20.484 72.8773 20.068 72.7173 19.684C72.5573 19.3 72.3013 18.98 71.9493 18.724C71.5973 18.452 71.1493 18.3 70.6053 18.268L69.4293 18.196L69.6933 15.532L71.1573 15.604C72.1013 15.652 72.9493 15.86 73.7013 16.228C74.4693 16.596 75.0853 17.14 75.5493 17.86C76.0293 18.564 76.2853 19.468 76.3173 20.572L76.3412 21.244C76.3893 22.7 76.1653 23.956 75.6693 25.012C75.1893 26.052 74.4613 26.908 73.4853 27.58C72.5253 28.252 71.3573 28.764 69.9813 29.116C68.6053 29.452 67.0613 29.66 65.3493 29.74ZM83.1049 29.524L82.8409 26.932C83.3529 26.884 83.8089 26.78 84.2089 26.62C84.6089 26.444 84.9449 26.196 85.2169 25.876C85.5049 25.54 85.7289 25.1 85.8889 24.556C86.0489 24.012 86.1609 23.348 86.2249 22.564L86.5129 18.412H78.1849V15.796H90.2569L90.1369 18.052L89.8729 21.652C89.8249 22.74 89.6649 23.756 89.3929 24.7C89.1369 25.644 88.7529 26.476 88.2409 27.196C87.7289 27.916 87.0489 28.484 86.2009 28.9C85.3689 29.3 84.3369 29.508 83.1049 29.524ZM77.9929 34.3V22.804L78.4729 21.172H81.4729V22.78V34.3H77.9929ZM92.5572 24.46V22.348V18.604L92.2932 15.796H95.7492L96.0372 18.604V22.348L96.0132 23.86L92.5572 24.46ZM98.7681 24.46V22.348V18.604L98.5041 15.796H101.96L102.248 18.604V22.348L102.224 23.86L98.7681 24.46ZM104.979 29.5V18.604L104.715 15.796H108.171L108.459 18.604V29.5H104.979ZM116.71 29.5V20.14C116.71 19.516 116.566 19.076 116.278 18.82C116.006 18.548 115.614 18.412 115.102 18.412H110.398V15.796H116.038C116.838 15.796 117.55 15.948 118.174 16.252C118.798 16.556 119.286 17.036 119.638 17.692C120.006 18.348 120.19 19.22 120.19 20.308V29.5H116.71ZM122.741 29.5V26.908H127.589C128.053 26.908 128.461 26.836 128.813 26.692C129.181 26.532 129.493 26.308 129.749 26.02C130.005 25.716 130.197 25.356 130.325 24.94C130.453 24.524 130.517 24.052 130.517 23.524V21.748C130.517 21.108 130.421 20.54 130.229 20.044C130.053 19.532 129.765 19.132 129.365 18.844C128.965 18.556 128.461 18.412 127.853 18.412H126.125L125.693 20.428C125.581 21.02 125.629 21.468 125.837 21.772C126.045 22.076 126.485 22.3 127.157 22.444L126.605 24.604C125.437 24.588 124.541 24.38 123.917 23.98C123.293 23.564 122.885 23.028 122.693 22.372C122.517 21.7 122.501 20.948 122.645 20.116L123.605 15.796H128.669C129.789 15.796 130.741 16.052 131.525 16.564C132.325 17.076 132.933 17.788 133.349 18.7C133.781 19.612 133.997 20.684 133.997 21.916V23.356C133.997 24.316 133.861 25.18 133.589 25.948C133.333 26.716 132.957 27.364 132.461 27.892C131.965 28.42 131.373 28.82 130.685 29.092C130.013 29.364 129.253 29.5 128.405 29.5H122.741ZM38.965 63.5L43.597 51.644H36.133V50.18H45.445V51.74L40.813 63.5H38.965ZM36.133 51.644V46.292H37.861V51.644H36.133ZM52.5871 63.5L51.6511 58.484V54.02C51.6511 53.268 51.5631 52.7 51.3871 52.316C51.2111 51.916 50.8271 51.676 50.2351 51.596L48.6991 51.356L48.9631 49.916L50.9791 50.228C51.9231 50.372 52.5791 50.74 52.9471 51.332C53.3311 51.924 53.5231 52.772 53.5231 53.876V58.508L54.3631 63.5H52.5871ZM47.8351 63.836L47.1631 62.348C48.2671 61.948 49.1951 61.42 49.9471 60.764C50.7151 60.092 51.3391 59.212 51.8191 58.124L52.4191 59.3C52.1151 60.084 51.7471 60.772 51.3151 61.364C50.8831 61.94 50.3791 62.428 49.8031 62.828C49.2271 63.228 48.5711 63.564 47.8351 63.836ZM59.3088 63.5L63.9408 51.644H56.4768V50.18H65.7888V51.74L61.1568 63.5H59.3088ZM56.4768 51.644V46.292H58.2048V51.644H56.4768ZM72.9308 63.5L71.9948 58.484V54.02C71.9948 53.268 71.9068 52.7 71.7308 52.316C71.5548 51.916 71.1708 51.676 70.5788 51.596L69.0428 51.356L69.3068 49.916L71.3228 50.228C72.2668 50.372 72.9228 50.74 73.2908 51.332C73.6748 51.924 73.8668 52.772 73.8668 53.876V58.508L74.7068 63.5H72.9308ZM68.1788 63.836L67.5068 62.348C68.6108 61.948 69.5388 61.42 70.2908 60.764C71.0588 60.092 71.6828 59.212 72.1628 58.124L72.7628 59.3C72.4588 60.084 72.0908 60.772 71.6588 61.364C71.2268 61.94 70.7228 62.428 70.1468 62.828C69.5708 63.228 68.9148 63.564 68.1788 63.836ZM76.5325 63.836L76.3405 62.516C76.9965 62.452 77.5005 62.308 77.8525 62.084C78.2205 61.844 78.4765 61.524 78.6205 61.124C78.7645 60.724 78.8365 60.228 78.8365 59.636V50.18H84.7165C85.5165 50.18 86.2125 50.324 86.8045 50.612C87.4125 50.9 87.8845 51.372 88.2205 52.028C88.5725 52.684 88.7485 53.556 88.7485 54.644V63.5H86.9005V54.572C86.9005 53.484 86.6605 52.724 86.1805 52.292C85.7165 51.86 85.0925 51.644 84.3085 51.644H80.6845V59.444C80.6845 60.388 80.5405 61.172 80.2525 61.796C79.9645 62.404 79.5165 62.876 78.9085 63.212C78.3005 63.532 77.5085 63.74 76.5325 63.836ZM96.1518 63.548L96.3438 62.084C97.6718 62.372 98.7438 62.34 99.5598 61.988C100.376 61.636 100.968 60.988 101.336 60.044C101.72 59.1 101.896 57.884 101.864 56.396C101.848 55.164 101.68 54.196 101.36 53.492C101.056 52.788 100.648 52.292 100.136 52.004C99.6398 51.7 99.0718 51.548 98.4318 51.548C97.7758 51.548 97.2238 51.692 96.7758 51.98C96.3438 52.252 95.9998 52.612 95.7438 53.06C95.4878 53.508 95.3038 53.996 95.1918 54.524L94.6398 53.516C94.9278 52.3 95.4478 51.42 96.1998 50.876C96.9678 50.316 97.7998 50.036 98.6958 50.036C99.3838 50.036 100.016 50.148 100.592 50.372C101.184 50.58 101.704 50.932 102.152 51.428C102.6 51.924 102.952 52.58 103.208 53.396C103.48 54.212 103.624 55.212 103.64 56.396C103.688 58.236 103.424 59.748 102.848 60.932C102.272 62.116 101.416 62.94 100.28 63.404C99.1598 63.852 97.7838 63.9 96.1518 63.548ZM91.7118 63.5L93.4878 54.164L91.6398 50.18H93.5598L95.2638 54.236L93.5598 63.5H91.7118Z" fill="#0D2A47"/>
<line x1="173.5" x2="173.5" y2="75" stroke="#0D2A47"/>
<path d="M218.548 28.5V19.14C218.548 18.516 218.404 18.076 218.116 17.82C217.844 17.548 217.452 17.412 216.94 17.412H212.476V14.796H217.876C218.676 14.796 219.388 14.948 220.012 15.252C220.636 15.556 221.124 16.036 221.476 16.692C221.844 17.348 222.028 18.22 222.028 19.308V26.268V28.5H218.548ZM211.012 28.5V25.908H220.78L220.708 28.5H211.012ZM210.268 28.5V16.908V14.796H213.748V17.1V28.5H210.268ZM224.663 23.46V21.348V17.604L224.399 14.796H227.855L228.143 17.604V21.348L228.119 22.86L224.663 23.46ZM232.818 28.5L237.138 17.412H230.178V14.796H240.618V17.652L236.298 28.5H232.818ZM230.178 17.412V11.292H233.298V17.412H230.178ZM242.827 23.46V21.348V17.604L242.563 14.796H246.019L246.307 17.604V21.348L246.283 22.86L242.827 23.46ZM254.846 28.5V19.14C254.846 18.516 254.702 18.076 254.414 17.82C254.126 17.548 253.726 17.412 253.214 17.412H248.486V14.796H254.174C254.974 14.796 255.686 14.948 256.31 15.252C256.934 15.556 257.422 16.036 257.774 16.692C258.126 17.348 258.302 18.22 258.302 19.308V28.5H254.846ZM248.486 28.5V25.908H259.91V28.5H248.486ZM262.069 28.5V17.604L261.805 14.796H265.261L265.549 17.604V28.5H262.069ZM273.2 28.524L273.512 25.932C274.696 26.188 275.616 26.18 276.272 25.908C276.928 25.62 277.384 25.1 277.64 24.348C277.912 23.596 278.04 22.66 278.024 21.54C278.008 20.532 277.896 19.716 277.688 19.092C277.48 18.468 277.184 18.02 276.8 17.748C276.416 17.46 275.928 17.316 275.336 17.316C274.904 17.316 274.512 17.404 274.16 17.58C273.808 17.756 273.52 18.012 273.296 18.348C273.072 18.684 272.928 19.084 272.864 19.548L272.072 18.06C272.392 16.844 272.912 15.964 273.632 15.42C274.368 14.86 275.176 14.58 276.056 14.58C276.904 14.58 277.648 14.724 278.288 15.012C278.944 15.284 279.496 15.708 279.944 16.284C280.392 16.86 280.728 17.588 280.952 18.468C281.192 19.348 281.312 20.372 281.312 21.54C281.328 23.3 281.016 24.772 280.376 25.956C279.752 27.14 278.832 27.972 277.616 28.452C276.4 28.916 274.928 28.94 273.2 28.524ZM267.92 28.5L269.6 19.26L267.68 14.796H271.28L272.888 19.428L271.4 28.5H267.92ZM296.571 28.5V19.14C296.571 18.516 296.427 18.076 296.139 17.82C295.867 17.548 295.475 17.412 294.963 17.412H290.499V14.796H295.899C296.699 14.796 297.411 14.948 298.035 15.252C298.659 15.556 299.147 16.036 299.499 16.692C299.867 17.348 300.051 18.22 300.051 19.308V26.268V28.5H296.571ZM289.035 28.5V25.908H298.803L298.731 28.5H289.035ZM288.291 28.5V16.908V14.796H291.771V17.1V28.5H288.291ZM302.686 23.46V21.348V17.604L302.422 14.796H305.878L306.166 17.604V21.348L306.142 22.86L302.686 23.46ZM316.169 28.5L308.417 14.796H311.921L319.649 28.5H316.169ZM308.177 28.5V25.908H317.777L318.761 28.5H308.177ZM316.385 23.124L314.417 20.172L316.577 14.796H320.009L316.385 23.124ZM327.823 28.5V19.14C327.823 18.516 327.679 18.076 327.391 17.82C327.119 17.548 326.727 17.412 326.215 17.412H321.511V14.796H327.151C327.951 14.796 328.663 14.948 329.287 15.252C329.911 15.556 330.399 16.036 330.751 16.692C331.119 17.348 331.303 18.22 331.303 19.308V28.5H327.823ZM338.942 28.524L339.254 25.932C340.438 26.188 341.358 26.18 342.014 25.908C342.67 25.62 343.126 25.1 343.382 24.348C343.654 23.596 343.782 22.66 343.766 21.54C343.75 20.532 343.638 19.716 343.43 19.092C343.222 18.468 342.926 18.02 342.542 17.748C342.158 17.46 341.67 17.316 341.078 17.316C340.646 17.316 340.254 17.404 339.902 17.58C339.55 17.756 339.262 18.012 339.038 18.348C338.814 18.684 338.67 19.084 338.606 19.548L337.814 18.06C338.134 16.844 338.654 15.964 339.374 15.42C340.11 14.86 340.918 14.58 341.798 14.58C342.646 14.58 343.39 14.724 344.03 15.012C344.686 15.284 345.238 15.708 345.686 16.284C346.134 16.86 346.47 17.588 346.694 18.468C346.934 19.348 347.054 20.372 347.054 21.54C347.07 23.3 346.758 24.772 346.118 25.956C345.494 27.14 344.574 27.972 343.358 28.452C342.142 28.916 340.67 28.94 338.942 28.524ZM333.662 28.5L335.342 19.26L333.422 14.796H337.022L338.63 19.428L337.142 28.5H333.662ZM248.878 64.5V55.572C248.878 54.484 248.638 53.724 248.158 53.292C247.694 52.86 247.078 52.644 246.31 52.644H240.67V51.18H246.718C247.518 51.18 248.214 51.324 248.806 51.612C249.414 51.9 249.886 52.372 250.222 53.028C250.574 53.684 250.75 54.556 250.75 55.644V64.5H248.878ZM240.646 64.5V58.02L240.91 56.412H242.518V58.02V64.5H240.646ZM254.204 59.46V57.564V53.988L253.868 51.18H255.716L256.052 53.988V57.564L256.028 59.076L254.204 59.46ZM259.571 59.46V57.564V53.988L259.235 51.18H261.083L261.419 53.988V57.564L261.395 59.076L259.571 59.46ZM265.922 64.74L264.242 51.18H266.018L267.458 63.108C268.706 63.028 269.802 62.804 270.746 62.436C271.706 62.068 272.506 61.54 273.146 60.852C273.786 60.164 274.266 59.308 274.586 58.284C274.906 57.26 275.058 56.06 275.042 54.684L275.018 51.18H276.866L276.89 54.612C276.906 56.884 276.506 58.764 275.69 60.252C274.89 61.74 273.674 62.86 272.042 63.612C270.41 64.348 268.37 64.724 265.922 64.74ZM266.666 59.556L266.234 58.26C267.098 57.86 267.778 57.436 268.274 56.988C268.77 56.54 269.13 55.972 269.354 55.284C269.578 54.596 269.698 53.716 269.714 52.644L269.738 51.228H271.514L271.49 52.62C271.474 53.82 271.306 54.852 270.986 55.716C270.666 56.58 270.154 57.316 269.45 57.924C268.762 58.532 267.834 59.076 266.666 59.556ZM278.743 65.196L278.479 63.708L282.751 62.892C283.695 62.716 284.463 62.452 285.055 62.1C285.663 61.748 286.127 61.284 286.447 60.708C286.783 60.132 287.023 59.412 287.167 58.548C287.327 57.684 287.423 56.644 287.455 55.428C287.487 54.212 287.503 52.796 287.503 51.18H289.327C289.327 52.908 289.295 54.436 289.231 55.764C289.167 57.092 289.023 58.252 288.799 59.244C288.575 60.22 288.223 61.044 287.743 61.716C287.279 62.388 286.639 62.948 285.823 63.396C285.023 63.828 284.007 64.164 282.775 64.404L278.743 65.196ZM282.775 63.036L279.631 51.18H281.479L284.575 63.036H282.775ZM291.325 64.836L291.133 63.516C291.789 63.452 292.293 63.308 292.645 63.084C293.013 62.844 293.269 62.524 293.413 62.124C293.557 61.724 293.629 61.228 293.629 60.636V51.18H299.509C300.309 51.18 301.005 51.324 301.597 51.612C302.205 51.9 302.677 52.372 303.013 53.028C303.365 53.684 303.541 54.556 303.541 55.644V64.5H301.693V55.572C301.693 54.484 301.453 53.724 300.973 53.292C300.509 52.86 299.885 52.644 299.101 52.644H295.477V60.444C295.477 61.388 295.333 62.172 295.045 62.796C294.757 63.404 294.309 63.876 293.701 64.212C293.093 64.532 292.301 64.74 291.325 64.836ZM313.273 64.5V55.572C313.273 54.484 313.033 53.724 312.553 53.292C312.089 52.86 311.465 52.644 310.681 52.644H306.361V51.18H311.089C311.889 51.18 312.593 51.324 313.201 51.612C313.809 51.9 314.281 52.372 314.617 53.028C314.953 53.684 315.121 54.556 315.121 55.644V64.5H313.273ZM306.361 64.5V63.036H316.825V64.5H306.361Z" fill="#0D2A47"/>
<line x1="384.5" x2="384.5" y2="75" stroke="#0D2A47"/>
<path d="M456.711 45.48C455.351 45.48 454.125 45.32 453.031 45C451.938 44.7067 450.965 44.2933 450.111 43.76C449.258 43.2 448.525 42.5733 447.911 41.88L450.471 38.4C451.245 39.1467 452.098 39.7733 453.031 40.28C453.991 40.7867 455.045 41.04 456.191 41.04C457.471 41.04 458.511 40.76 459.311 40.2C460.111 39.6133 460.511 38.8 460.511 37.76C460.511 36.9867 460.311 36.32 459.911 35.76C459.511 35.1733 458.805 34.72 457.791 34.4C456.778 34.08 455.338 33.92 453.471 33.92V30C455.045 30 456.271 29.8533 457.151 29.56C458.058 29.24 458.698 28.8133 459.071 28.28C459.471 27.7467 459.671 27.12 459.671 26.4C459.671 25.44 459.378 24.7067 458.791 24.2C458.205 23.6667 457.391 23.4 456.351 23.4C455.418 23.4 454.565 23.6 453.791 24C453.018 24.4 452.245 24.96 451.471 25.68L448.671 22.36C449.845 21.3467 451.071 20.56 452.351 20C453.631 19.4133 455.045 19.12 456.591 19.12C458.298 19.12 459.791 19.3867 461.071 19.92C462.351 20.4533 463.351 21.2267 464.071 22.24C464.791 23.2533 465.151 24.5067 465.151 26C465.151 27.3333 464.778 28.48 464.031 29.44C463.285 30.3733 462.231 31.1333 460.871 31.72V31.88C461.858 32.1467 462.738 32.56 463.511 33.12C464.285 33.68 464.885 34.3733 465.311 35.2C465.765 36.0267 465.991 36.9867 465.991 38.08C465.991 39.6533 465.565 41 464.711 42.12C463.885 43.2133 462.765 44.0533 461.351 44.64C459.938 45.2 458.391 45.48 456.711 45.48ZM423.596 69V63.048C423.596 62.3227 423.436 61.816 423.116 61.528C422.807 61.24 422.396 61.096 421.884 61.096H418.124V60.12H422.156C422.689 60.12 423.153 60.216 423.548 60.408C423.953 60.6 424.268 60.9147 424.492 61.352C424.727 61.7893 424.844 62.3707 424.844 63.096V69H423.596ZM418.108 69V64.68L418.284 63.608H419.356V64.68V69H418.108ZM431.114 69V63.048C431.114 62.3227 430.954 61.816 430.634 61.528C430.325 61.24 429.909 61.096 429.386 61.096H426.554V60.12H429.658C430.192 60.12 430.661 60.216 431.066 60.408C431.472 60.6 431.786 60.9147 432.01 61.352C432.234 61.7893 432.346 62.3707 432.346 63.096V69H431.114ZM435.365 69.16L434.245 60.12H435.429L436.389 68.072C437.221 68.0187 437.952 67.8693 438.581 67.624C439.221 67.3787 439.754 67.0267 440.181 66.568C440.608 66.1093 440.928 65.5387 441.141 64.856C441.354 64.1733 441.456 63.3733 441.445 62.456L441.429 60.12H442.661L442.677 62.408C442.688 63.9227 442.421 65.176 441.877 66.168C441.344 67.16 440.533 67.9067 439.445 68.408C438.357 68.8987 436.997 69.1493 435.365 69.16ZM435.861 65.704L435.573 64.84C436.149 64.5733 436.602 64.2907 436.933 63.992C437.264 63.6933 437.504 63.3147 437.653 62.856C437.802 62.3973 437.882 61.8107 437.893 61.096L437.909 60.152H439.093L439.077 61.08C439.066 61.88 438.954 62.568 438.741 63.144C438.528 63.72 438.186 64.2107 437.717 64.616C437.258 65.0213 436.64 65.384 435.861 65.704ZM444.243 69V68.024H446.371C446.947 68.024 447.427 67.912 447.811 67.688C448.206 67.464 448.499 67.1333 448.691 66.696C448.883 66.248 448.979 65.704 448.979 65.064V64.056C448.979 63.416 448.883 62.8773 448.691 62.44C448.499 61.992 448.206 61.656 447.811 61.432C447.427 61.208 446.947 61.096 446.371 61.096H444.243V60.12H446.611C447.379 60.12 448.03 60.2693 448.563 60.568C449.096 60.8667 449.502 61.3147 449.779 61.912C450.067 62.5093 450.211 63.24 450.211 64.104V65.016C450.211 65.88 450.067 66.6107 449.779 67.208C449.502 67.7947 449.096 68.2427 448.563 68.552C448.03 68.8507 447.379 69 446.611 69H444.243ZM457.502 69V63.048C457.502 62.3227 457.342 61.816 457.022 61.528C456.713 61.24 456.302 61.096 455.79 61.096H452.03V60.12H456.062C456.596 60.12 457.06 60.216 457.454 60.408C457.86 60.6 458.174 60.9147 458.398 61.352C458.633 61.7893 458.75 62.3707 458.75 63.096V69H457.502ZM452.014 69V64.68L452.19 63.608H453.262V64.68V69H452.014ZM464.256 65.64V64.376V61.992L464.032 60.12H465.264L465.488 61.992V64.376L465.472 65.384L464.256 65.64ZM468.49 69.16L467.37 60.12H468.554L469.514 68.072C470.346 68.0187 471.077 67.8693 471.706 67.624C472.346 67.3787 472.879 67.0267 473.306 66.568C473.733 66.1093 474.053 65.5387 474.266 64.856C474.479 64.1733 474.581 63.3733 474.57 62.456L474.554 60.12H475.786L475.802 62.408C475.813 63.9227 475.546 65.176 475.002 66.168C474.469 67.16 473.658 67.9067 472.57 68.408C471.482 68.8987 470.122 69.1493 468.49 69.16ZM468.986 65.704L468.698 64.84C469.274 64.5733 469.727 64.2907 470.058 63.992C470.389 63.6933 470.629 63.3147 470.778 62.856C470.927 62.3973 471.007 61.8107 471.018 61.096L471.034 60.152H472.218L472.202 61.08C472.191 61.88 472.079 62.568 471.866 63.144C471.653 63.72 471.311 64.2107 470.842 64.616C470.383 65.0213 469.765 65.384 468.986 65.704ZM481.544 69V62.968C481.544 62.5733 481.581 62.216 481.656 61.896C481.741 61.576 481.853 61.3093 481.992 61.096H477.512V60.12H484.36V61.096H483.176C483.016 61.3627 482.909 61.672 482.856 62.024C482.813 62.3653 482.792 62.68 482.792 62.968V69H481.544ZM486.49 69V61.992L486.266 60.12H487.498L487.722 61.992V69H486.49ZM495.508 69V63.272C495.508 61.8213 494.932 61.096 493.78 61.096H489.828V60.12H494.052C494.618 60.12 495.098 60.2373 495.492 60.472C495.898 60.696 496.207 61.048 496.42 61.528C496.634 61.9973 496.74 62.5947 496.74 63.32V69H495.508ZM489.828 69V60.536H491.06V69H489.828Z" fill="#0D2A47"/>
</svg>
