<svg width="450" height="75" viewBox="0 0 450 75" fill="none" xmlns="http://www.w3.org/2000/svg">
<path d="M81.2691 29.724L81.1411 28.844C81.5784 28.8013 81.9144 28.7053 82.1491 28.556C82.3944 28.396 82.5651 28.1827 82.6611 27.916C82.7571 27.6493 82.8051 27.3187 82.8051 26.924V20.62H86.7251C87.2584 20.62 87.7224 20.716 88.1171 20.908C88.5224 21.1 88.8371 21.4147 89.0611 21.852C89.2957 22.2893 89.4131 22.8707 89.4131 23.596V29.5H88.1811V23.548C88.1811 22.8227 88.0211 22.316 87.7011 22.028C87.3917 21.74 86.9757 21.596 86.4531 21.596H84.0371V26.796C84.0371 27.4253 83.9411 27.948 83.7491 28.364C83.5571 28.7693 83.2584 29.084 82.8531 29.308C82.4477 29.5213 81.9197 29.66 81.2691 29.724ZM91.7246 29.5V22.492L91.5006 20.62H92.7326L92.9566 22.492V29.5H91.7246ZM94.6467 29.964L94.4707 28.972L97.3187 28.428C97.948 28.3107 98.46 28.1347 98.8547 27.9C99.26 27.6653 99.5694 27.356 99.7827 26.972C100.007 26.588 100.167 26.108 100.263 25.532C100.369 24.956 100.433 24.2627 100.455 23.452C100.476 22.6413 100.487 21.6973 100.487 20.62H101.703C101.703 21.772 101.681 22.7907 101.639 23.676C101.596 24.5613 101.5 25.3347 101.351 25.996C101.201 26.6467 100.967 27.196 100.647 27.644C100.337 28.092 99.9107 28.4653 99.3667 28.764C98.8334 29.052 98.156 29.276 97.3347 29.436L94.6467 29.964ZM97.3347 28.524L95.2387 20.62H96.4707L98.5347 28.524H97.3347ZM103.803 29.5V22.492L103.579 20.62H104.811L105.035 22.492V29.5H103.803ZM111.557 29.5V23.548C111.557 22.8227 111.397 22.316 111.077 22.028C110.767 21.74 110.351 21.596 109.829 21.596H106.949V20.62H110.101C110.634 20.62 111.103 20.716 111.509 20.908C111.914 21.1 112.229 21.4147 112.453 21.852C112.677 22.2893 112.789 22.8707 112.789 23.596V29.5H111.557ZM106.949 29.5V28.524H113.925V29.5H106.949ZM116.459 29.66L115.339 20.62H116.523L117.483 28.572C118.315 28.5187 119.045 28.3693 119.675 28.124C120.315 27.8787 120.848 27.5267 121.275 27.068C121.701 26.6093 122.021 26.0387 122.235 25.356C122.448 24.6733 122.549 23.8733 122.539 22.956L122.523 20.62H123.755L123.771 22.908C123.781 24.4227 123.515 25.676 122.971 26.668C122.437 27.66 121.627 28.4067 120.539 28.908C119.451 29.3987 118.091 29.6493 116.459 29.66ZM116.955 26.204L116.667 25.34C117.243 25.0733 117.696 24.7907 118.027 24.492C118.357 24.1933 118.597 23.8147 118.747 23.356C118.896 22.8973 118.976 22.3107 118.987 21.596L119.003 20.652H120.187L120.171 21.58C120.16 22.38 120.048 23.068 119.835 23.644C119.621 24.22 119.28 24.7107 118.811 25.116C118.352 25.5213 117.733 25.884 116.955 26.204ZM133.326 29.5C133.422 27.772 133.606 26.22 133.878 24.844C134.15 23.468 134.566 22.156 135.126 20.908C135.702 19.644 136.478 18.348 137.454 17.02H130.494V14.26H140.982V16.276C140.086 17.348 139.366 18.372 138.822 19.348C138.294 20.308 137.878 21.284 137.574 22.276C137.286 23.268 137.07 24.348 136.926 25.516C136.798 26.684 136.702 28.012 136.638 29.5H133.326ZM1.03731 63.964L0.861313 62.972L3.70931 62.428C4.33865 62.3107 4.85065 62.1347 5.24531 61.9C5.65065 61.6653 5.95998 61.356 6.17331 60.972C6.39731 60.588 6.55731 60.108 6.65331 59.532C6.75998 58.956 6.82398 58.2627 6.84531 57.452C6.86665 56.6413 6.87731 55.6973 6.87731 54.62H8.09331C8.09331 55.772 8.07198 56.7907 8.02931 57.676C7.98665 58.5613 7.89065 59.3347 7.74131 59.996C7.59198 60.6467 7.35731 61.196 7.03731 61.644C6.72798 62.092 6.30131 62.4653 5.75731 62.764C5.22398 63.052 4.54665 63.276 3.72531 63.436L1.03731 63.964ZM3.72531 62.524L1.62931 54.62H2.86131L4.92531 62.524H3.72531ZM10.1933 63.5V56.492L9.96931 54.62H11.2013L11.4253 56.492V63.5H10.1933ZM17.9474 63.5V57.548C17.9474 56.8227 17.7874 56.316 17.4674 56.028C17.1581 55.74 16.7421 55.596 16.2194 55.596H13.3394V54.62H16.4914C17.0248 54.62 17.4941 54.716 17.8994 54.908C18.3048 55.1 18.6194 55.4147 18.8434 55.852C19.0674 56.2893 19.1794 56.8707 19.1794 57.596V63.5H17.9474ZM13.3394 63.5V62.524H20.3154V63.5H13.3394ZM22.8493 63.66L21.7293 54.62H22.9133L23.8733 62.572C24.7053 62.5187 25.436 62.3693 26.0653 62.124C26.7053 61.8787 27.2386 61.5267 27.6653 61.068C28.092 60.6093 28.412 60.0387 28.6253 59.356C28.8386 58.6733 28.94 57.8733 28.9293 56.956L28.9133 54.62H30.1453L30.1613 56.908C30.172 58.4227 29.9053 59.676 29.3613 60.668C28.828 61.66 28.0173 62.4067 26.9293 62.908C25.8413 63.3987 24.4813 63.6493 22.8493 63.66ZM23.3453 60.204L23.0573 59.34C23.6333 59.0733 24.0866 58.7907 24.4173 58.492C24.748 58.1933 24.988 57.8147 25.1373 57.356C25.2866 56.8973 25.3666 56.3107 25.3773 55.596L25.3933 54.652H26.5773L26.5613 55.58C26.5506 56.38 26.4386 57.068 26.2253 57.644C26.012 58.22 25.6706 58.7107 25.2013 59.116C24.7426 59.5213 24.124 59.884 23.3453 60.204ZM36.4474 63.5V57.548C36.4474 56.8227 36.2874 56.316 35.9674 56.028C35.6581 55.74 35.2421 55.596 34.7194 55.596H31.8394V54.62H34.9914C35.5248 54.62 35.9941 54.716 36.3994 54.908C36.8048 55.1 37.1194 55.4147 37.3434 55.852C37.5674 56.2893 37.6794 56.8707 37.6794 57.596V63.5H36.4474ZM31.8394 63.5V62.524H38.8154V63.5H31.8394ZM44.0884 58.46V56.348V52.604L43.8244 49.796H47.2804L47.5684 52.604V56.348L47.5444 57.86L44.0884 58.46ZM57.5714 63.5L49.8194 49.796H53.3234L61.0514 63.5H57.5714ZM49.5794 63.5V60.908H59.1794L60.1634 63.5H49.5794ZM57.7874 58.124L55.8194 55.172L57.9794 49.796H61.4114L57.7874 58.124ZM71.8416 63.5V54.26C71.8416 53.028 71.3056 52.412 70.2336 52.412H63.5376V49.796H71.1696C71.9856 49.796 72.7056 49.956 73.3296 50.276C73.9536 50.596 74.4416 51.1 74.7936 51.788C75.1456 52.46 75.3216 53.34 75.3216 54.428V63.5H71.8416ZM63.5376 63.5V51.356H67.0176V63.5H63.5376ZM77.9791 63.5V52.604L77.7151 49.796H81.1711L81.4591 52.604V63.5H77.9791ZM97.0827 63.5V54.14C97.0827 53.516 96.9387 53.076 96.6507 52.82C96.3787 52.548 95.9867 52.412 95.4747 52.412H91.0107V49.796H96.4107C97.2107 49.796 97.9227 49.948 98.5467 50.252C99.1707 50.556 99.6587 51.036 100.011 51.692C100.379 52.348 100.563 53.22 100.563 54.308V61.268V63.5H97.0827ZM89.5467 63.5V60.908H99.3147L99.2427 63.5H89.5467ZM88.8027 63.5V51.908V49.796H92.2827V52.1V63.5H88.8027ZM103.198 58.46V56.348V52.604L102.934 49.796H106.39L106.678 52.604V56.348L106.654 57.86L103.198 58.46ZM109.409 58.46V56.348V52.604L109.145 49.796H112.601L112.889 52.604V56.348L112.865 57.86L109.409 58.46ZM120.54 63.524L120.852 60.932C122.036 61.188 122.956 61.18 123.612 60.908C124.268 60.62 124.724 60.1 124.98 59.348C125.252 58.596 125.38 57.66 125.364 56.54C125.348 55.532 125.236 54.716 125.028 54.092C124.82 53.468 124.524 53.02 124.14 52.748C123.756 52.46 123.268 52.316 122.676 52.316C122.244 52.316 121.852 52.404 121.5 52.58C121.148 52.756 120.86 53.012 120.636 53.348C120.412 53.684 120.268 54.084 120.204 54.548L119.412 53.06C119.732 51.844 120.252 50.964 120.972 50.42C121.708 49.86 122.516 49.58 123.396 49.58C124.244 49.58 124.988 49.724 125.628 50.012C126.284 50.284 126.836 50.708 127.284 51.284C127.732 51.86 128.068 52.588 128.292 53.468C128.532 54.348 128.652 55.372 128.652 56.54C128.668 58.3 128.356 59.772 127.716 60.956C127.092 62.14 126.172 62.972 124.956 63.452C123.74 63.916 122.268 63.94 120.54 63.524ZM115.26 63.5L116.94 54.26L115.02 49.796H118.62L120.228 54.428L118.74 63.5H115.26ZM131.018 63.5V52.604L130.754 49.796H134.21L134.498 52.604V63.5H131.018ZM137.229 58.46V56.348V52.604L136.965 49.796H140.421L140.709 52.604V56.348L140.685 57.86L137.229 58.46Z" fill="#0D2A47"/>
<line x1="175.5" x2="175.5" y2="75" stroke="#0D2A47"/>
<path d="M209.717 45V40.56H215.317V25.24H210.557V21.84C211.891 21.5733 213.037 21.2667 213.997 20.92C214.957 20.5467 215.877 20.1067 216.757 19.6H220.797V40.56H225.637V45H209.717ZM237.699 45.48C234.979 45.48 232.805 44.3467 231.179 42.08C229.552 39.8133 228.739 36.52 228.739 32.2C228.739 27.8533 229.552 24.5867 231.179 22.4C232.805 20.2133 234.979 19.12 237.699 19.12C240.392 19.12 242.552 20.2267 244.179 22.44C245.805 24.6267 246.619 27.88 246.619 32.2C246.619 36.52 245.805 39.8133 244.179 42.08C242.552 44.3467 240.392 45.48 237.699 45.48ZM237.699 41.24C238.392 41.24 239.019 40.9733 239.579 40.44C240.165 39.9067 240.619 38.9867 240.939 37.68C241.259 36.3467 241.419 34.52 241.419 32.2C241.419 29.8533 241.259 28.04 240.939 26.76C240.619 25.48 240.165 24.6 239.579 24.12C239.019 23.6133 238.392 23.36 237.699 23.36C236.979 23.36 236.325 23.6133 235.739 24.12C235.179 24.6 234.739 25.48 234.419 26.76C234.099 28.04 233.939 29.8533 233.939 32.2C233.939 34.52 234.099 36.3467 234.419 37.68C234.739 38.9867 235.179 39.9067 235.739 40.44C236.325 40.9733 236.979 41.24 237.699 41.24ZM258.636 45.48C255.916 45.48 253.743 44.3467 252.116 42.08C250.49 39.8133 249.676 36.52 249.676 32.2C249.676 27.8533 250.49 24.5867 252.116 22.4C253.743 20.2133 255.916 19.12 258.636 19.12C261.33 19.12 263.49 20.2267 265.116 22.44C266.743 24.6267 267.556 27.88 267.556 32.2C267.556 36.52 266.743 39.8133 265.116 42.08C263.49 44.3467 261.33 45.48 258.636 45.48ZM258.636 41.24C259.33 41.24 259.956 40.9733 260.516 40.44C261.103 39.9067 261.556 38.9867 261.876 37.68C262.196 36.3467 262.356 34.52 262.356 32.2C262.356 29.8533 262.196 28.04 261.876 26.76C261.556 25.48 261.103 24.6 260.516 24.12C259.956 23.6133 259.33 23.36 258.636 23.36C257.916 23.36 257.263 23.6133 256.676 24.12C256.116 24.6 255.676 25.48 255.356 26.76C255.036 28.04 254.876 29.8533 254.876 32.2C254.876 34.52 255.036 36.3467 255.356 37.68C255.676 38.9867 256.116 39.9067 256.676 40.44C257.263 40.9733 257.916 41.24 258.636 41.24ZM277.294 45.48L291.414 18.44H294.654L280.494 45.48H277.294ZM276.614 34.36C275.36 34.36 274.24 34.04 273.254 33.4C272.294 32.7333 271.534 31.7867 270.974 30.56C270.44 29.3067 270.174 27.8 270.174 26.04C270.174 23.4267 270.774 21.4 271.974 19.96C273.2 18.52 274.747 17.8 276.614 17.8C278.48 17.8 280.014 18.52 281.214 19.96C282.414 21.4 283.014 23.4267 283.014 26.04C283.014 27.8 282.734 29.3067 282.174 30.56C281.64 31.7867 280.88 32.7333 279.894 33.4C278.934 34.04 277.84 34.36 276.614 34.36ZM276.614 31.28C277.334 31.28 277.934 30.88 278.414 30.08C278.92 29.28 279.174 27.9333 279.174 26.04C279.174 24.1733 278.92 22.8533 278.414 22.08C277.934 21.3067 277.334 20.92 276.614 20.92C275.894 20.92 275.28 21.3067 274.774 22.08C274.267 22.8533 274.014 24.1733 274.014 26.04C274.014 27.9333 274.267 29.28 274.774 30.08C275.28 30.88 275.894 31.28 276.614 31.28ZM295.374 45.48C294.12 45.48 293.014 45.1467 292.054 44.48C291.094 43.8133 290.334 42.8667 289.774 41.64C289.24 40.3867 288.974 38.8933 288.974 37.16C288.974 34.5467 289.574 32.52 290.774 31.08C291.974 29.64 293.507 28.92 295.374 28.92C297.24 28.92 298.774 29.64 299.974 31.08C301.2 32.52 301.814 34.5467 301.814 37.16C301.814 38.8933 301.534 40.3867 300.974 41.64C300.414 42.8667 299.654 43.8133 298.694 44.48C297.734 45.1467 296.627 45.48 295.374 45.48ZM295.374 42.4C296.12 42.4 296.734 42 297.214 41.2C297.694 40.4 297.934 39.0533 297.934 37.16C297.934 35.2667 297.694 33.9333 297.214 33.16C296.734 32.3867 296.12 32 295.374 32C294.68 32 294.08 32.3867 293.574 33.16C293.067 33.9333 292.814 35.2667 292.814 37.16C292.814 39.0533 293.067 40.4 293.574 41.2C294.08 42 294.68 42.4 295.374 42.4ZM210.722 69.224L210.594 68.344C211.032 68.3013 211.368 68.2053 211.602 68.056C211.848 67.896 212.018 67.6827 212.114 67.416C212.21 67.1493 212.258 66.8187 212.258 66.424V60.12H216.178C216.712 60.12 217.176 60.216 217.57 60.408C217.976 60.6 218.29 60.9147 218.514 61.352C218.749 61.7893 218.866 62.3707 218.866 63.096V69H217.634V63.048C217.634 62.3227 217.474 61.816 217.154 61.528C216.845 61.24 216.429 61.096 215.906 61.096H213.49V66.296C213.49 66.9253 213.394 67.448 213.202 67.864C213.01 68.2693 212.712 68.584 212.306 68.808C211.901 69.0213 211.373 69.16 210.722 69.224ZM221.178 69V61.992L220.954 60.12H222.186L222.41 61.992V69H221.178ZM225.38 69.16L224.404 61.096L225.556 60.472L226.468 68.024C226.905 67.9813 227.326 67.912 227.732 67.816C228.148 67.7093 228.526 67.56 228.868 67.368C229.209 67.1653 229.508 66.9093 229.764 66.6C230.02 66.2907 230.212 65.912 230.34 65.464C230.468 65.0053 230.516 64.4613 230.484 63.832V63.448C230.484 63 230.409 62.6 230.26 62.248C230.121 61.896 229.908 61.6187 229.62 61.416C229.332 61.2027 228.98 61.096 228.564 61.096H224.404L224.292 60.12H228.66C229.62 60.12 230.356 60.4187 230.868 61.016C231.39 61.6133 231.668 62.3973 231.7 63.368L231.716 63.864C231.748 64.8347 231.604 65.656 231.284 66.328C230.974 66.9893 230.526 67.5227 229.94 67.928C229.353 68.3227 228.665 68.616 227.876 68.808C227.097 69 226.265 69.1173 225.38 69.16ZM232.838 69V68.024H235.622V62.68C235.622 62.1467 235.51 61.7627 235.286 61.528C235.073 61.2827 234.769 61.128 234.374 61.064L233.302 60.904L233.478 59.944L234.87 60.152C235.51 60.248 236.001 60.5093 236.342 60.936C236.684 61.352 236.854 61.928 236.854 62.664V69H232.838ZM238.441 69.224L238.313 68.344C238.75 68.3013 239.086 68.2053 239.321 68.056C239.566 67.896 239.737 67.6827 239.833 67.416C239.929 67.1493 239.977 66.8187 239.977 66.424V60.12H243.897C244.43 60.12 244.894 60.216 245.289 60.408C245.694 60.6 246.009 60.9147 246.233 61.352C246.468 61.7893 246.585 62.3707 246.585 63.096V69H245.353V63.048C245.353 62.3227 245.193 61.816 244.873 61.528C244.564 61.24 244.148 61.096 243.625 61.096H241.209V66.296C241.209 66.9253 241.113 67.448 240.921 67.864C240.729 68.2693 240.43 68.584 240.025 68.808C239.62 69.0213 239.092 69.16 238.441 69.224ZM254.08 69V63.048C254.08 62.3227 253.92 61.816 253.6 61.528C253.291 61.24 252.88 61.096 252.368 61.096H248.608V60.12H252.64C253.174 60.12 253.638 60.216 254.032 60.408C254.438 60.6 254.752 60.9147 254.976 61.352C255.211 61.7893 255.328 62.3707 255.328 63.096V69H254.08ZM248.592 69V64.68L248.768 63.608H249.84V64.68V69H248.592ZM257.631 69V61.992L257.407 60.12H258.639L258.863 61.992V69H257.631ZM265.724 69L268.812 61.096H263.836V60.12H270.044V61.16L266.956 69H265.724ZM263.836 61.096V57.528H264.988V61.096H263.836ZM272.021 69V61.992L271.797 60.12H273.029L273.253 61.992V69H272.021ZM278.384 69L277.76 65.656V62.68C277.76 62.1787 277.701 61.8 277.584 61.544C277.466 61.2773 277.21 61.1173 276.816 61.064L275.792 60.904L275.968 59.944L277.312 60.152C277.941 60.248 278.378 60.4933 278.624 60.888C278.88 61.2827 279.008 61.848 279.008 62.584V65.672L279.568 69H278.384ZM275.216 69.224L274.768 68.232C275.504 67.9653 276.122 67.6133 276.624 67.176C277.136 66.728 277.552 66.1413 277.872 65.416L278.272 66.2C278.069 66.7227 277.824 67.1813 277.536 67.576C277.248 67.96 276.912 68.2853 276.528 68.552C276.144 68.8187 275.706 69.0427 275.216 69.224ZM285.521 69V63.048C285.521 62.3227 285.361 61.816 285.041 61.528C284.731 61.24 284.315 61.096 283.793 61.096H280.961V60.12H284.065C284.598 60.12 285.067 60.216 285.473 60.408C285.878 60.6 286.193 60.9147 286.417 61.352C286.641 61.7893 286.753 62.3707 286.753 63.096V69H285.521ZM288.347 69.224L288.219 68.344C288.657 68.3013 288.993 68.2053 289.227 68.056C289.473 67.896 289.643 67.6827 289.739 67.416C289.835 67.1493 289.883 66.8187 289.883 66.424V60.12H293.803C294.337 60.12 294.801 60.216 295.195 60.408C295.601 60.6 295.915 60.9147 296.139 61.352C296.374 61.7893 296.491 62.3707 296.491 63.096V69H295.259V63.048C295.259 62.3227 295.099 61.816 294.779 61.528C294.47 61.24 294.054 61.096 293.531 61.096H291.115V66.296C291.115 66.9253 291.019 67.448 290.827 67.864C290.635 68.2693 290.337 68.584 289.931 68.808C289.526 69.0213 288.998 69.16 288.347 69.224Z" fill="#0D2A47"/>
<line x1="336.5" x2="336.5" y2="75" stroke="#0D2A47"/>
<path d="M380.612 45V40.56H386.212V25.24H381.452V21.84C382.785 21.5733 383.932 21.2667 384.892 20.92C385.852 20.5467 386.772 20.1067 387.652 19.6H391.692V40.56H396.532V45H380.612ZM399.593 45V41.84C401.833 39.7333 403.793 37.8267 405.473 36.12C407.153 34.3867 408.46 32.8133 409.393 31.4C410.327 29.9867 410.793 28.6533 410.793 27.4C410.793 26.12 410.46 25.1333 409.793 24.44C409.127 23.7467 408.193 23.4 406.993 23.4C406.087 23.4 405.247 23.6667 404.473 24.2C403.7 24.7333 402.993 25.36 402.353 26.08L399.353 23.12C400.58 21.7867 401.833 20.7867 403.113 20.12C404.42 19.4533 405.967 19.12 407.753 19.12C409.407 19.12 410.847 19.4533 412.073 20.12C413.327 20.76 414.3 21.68 414.993 22.88C415.687 24.08 416.033 25.4933 416.033 27.12C416.033 28.56 415.633 30.0267 414.833 31.52C414.033 33.0133 412.98 34.5333 411.673 36.08C410.393 37.6 409.007 39.1333 407.513 40.68C408.18 40.6 408.9 40.5333 409.673 40.48C410.473 40.4267 411.18 40.4 411.793 40.4H417.273V45H399.593ZM429.531 45.48C426.811 45.48 424.637 44.3467 423.011 42.08C421.384 39.8133 420.571 36.52 420.571 32.2C420.571 27.8533 421.384 24.5867 423.011 22.4C424.637 20.2133 426.811 19.12 429.531 19.12C432.224 19.12 434.384 20.2267 436.011 22.44C437.637 24.6267 438.451 27.88 438.451 32.2C438.451 36.52 437.637 39.8133 436.011 42.08C434.384 44.3467 432.224 45.48 429.531 45.48ZM429.531 41.24C430.224 41.24 430.851 40.9733 431.411 40.44C431.997 39.9067 432.451 38.9867 432.771 37.68C433.091 36.3467 433.251 34.52 433.251 32.2C433.251 29.8533 433.091 28.04 432.771 26.76C432.451 25.48 431.997 24.6 431.411 24.12C430.851 23.6133 430.224 23.36 429.531 23.36C428.811 23.36 428.157 23.6133 427.571 24.12C427.011 24.6 426.571 25.48 426.251 26.76C425.931 28.04 425.771 29.8533 425.771 32.2C425.771 34.52 425.931 36.3467 426.251 37.68C426.571 38.9867 427.011 39.9067 427.571 40.44C428.157 40.9733 428.811 41.24 429.531 41.24ZM375.487 69V63.048C375.487 62.3227 375.327 61.816 375.007 61.528C374.697 61.24 374.287 61.096 373.775 61.096H370.015V60.12H374.047C374.58 60.12 375.044 60.216 375.439 60.408C375.844 60.6 376.159 60.9147 376.383 61.352C376.617 61.7893 376.735 62.3707 376.735 63.096V69H375.487ZM369.999 69V64.68L370.175 63.608H371.247V64.68V69H369.999ZM383.005 69V63.048C383.005 62.3227 382.845 61.816 382.525 61.528C382.216 61.24 381.8 61.096 381.277 61.096H378.445V60.12H381.549C382.082 60.12 382.552 60.216 382.957 60.408C383.362 60.6 383.677 60.9147 383.901 61.352C384.125 61.7893 384.237 62.3707 384.237 63.096V69H383.005ZM387.256 69.16L386.136 60.12H387.32L388.28 68.072C389.112 68.0187 389.842 67.8693 390.472 67.624C391.112 67.3787 391.645 67.0267 392.072 66.568C392.498 66.1093 392.818 65.5387 393.032 64.856C393.245 64.1733 393.346 63.3733 393.336 62.456L393.32 60.12H394.552L394.568 62.408C394.578 63.9227 394.312 65.176 393.768 66.168C393.234 67.16 392.424 67.9067 391.336 68.408C390.248 68.8987 388.888 69.1493 387.256 69.16ZM387.752 65.704L387.464 64.84C388.04 64.5733 388.493 64.2907 388.824 63.992C389.154 63.6933 389.394 63.3147 389.544 62.856C389.693 62.3973 389.773 61.8107 389.784 61.096L389.8 60.152H390.984L390.968 61.08C390.957 61.88 390.845 62.568 390.632 63.144C390.418 63.72 390.077 64.2107 389.608 64.616C389.149 65.0213 388.53 65.384 387.752 65.704ZM396.134 69V68.024H398.262C398.838 68.024 399.318 67.912 399.702 67.688C400.096 67.464 400.39 67.1333 400.582 66.696C400.774 66.248 400.87 65.704 400.87 65.064V64.056C400.87 63.416 400.774 62.8773 400.582 62.44C400.39 61.992 400.096 61.656 399.702 61.432C399.318 61.208 398.838 61.096 398.262 61.096H396.134V60.12H398.502C399.27 60.12 399.92 60.2693 400.454 60.568C400.987 60.8667 401.392 61.3147 401.67 61.912C401.958 62.5093 402.102 63.24 402.102 64.104V65.016C402.102 65.88 401.958 66.6107 401.67 67.208C401.392 67.7947 400.987 68.2427 400.454 68.552C399.92 68.8507 399.27 69 398.502 69H396.134ZM409.393 69V63.048C409.393 62.3227 409.233 61.816 408.913 61.528C408.604 61.24 408.193 61.096 407.681 61.096H403.921V60.12H407.953C408.486 60.12 408.95 60.216 409.345 60.408C409.75 60.6 410.065 60.9147 410.289 61.352C410.524 61.7893 410.641 62.3707 410.641 63.096V69H409.393ZM403.905 69V64.68L404.081 63.608H405.153V64.68V69H403.905ZM415.378 69.224L415.25 68.344C415.688 68.3013 416.024 68.2053 416.258 68.056C416.504 67.896 416.674 67.6827 416.77 67.416C416.866 67.1493 416.914 66.8187 416.914 66.424V60.12H420.834C421.368 60.12 421.832 60.216 422.226 60.408C422.632 60.6 422.946 60.9147 423.17 61.352C423.405 61.7893 423.522 62.3707 423.522 63.096V69H422.29V63.048C422.29 62.3227 422.13 61.816 421.81 61.528C421.501 61.24 421.085 61.096 420.562 61.096H418.146V66.296C418.146 66.9253 418.05 67.448 417.858 67.864C417.666 68.2693 417.368 68.584 416.962 68.808C416.557 69.0213 416.029 69.16 415.378 69.224ZM425.834 69V61.992L425.61 60.12H426.842L427.066 61.992V69H425.834ZM428.756 69.464L428.58 68.472L431.428 67.928C432.057 67.8107 432.569 67.6347 432.964 67.4C433.369 67.1653 433.679 66.856 433.892 66.472C434.116 66.088 434.276 65.608 434.372 65.032C434.479 64.456 434.543 63.7627 434.564 62.952C434.585 62.1413 434.596 61.1973 434.596 60.12H435.812C435.812 61.272 435.791 62.2907 435.748 63.176C435.705 64.0613 435.609 64.8347 435.46 65.496C435.311 66.1467 435.076 66.696 434.756 67.144C434.447 67.592 434.02 67.9653 433.476 68.264C432.943 68.552 432.265 68.776 431.444 68.936L428.756 69.464ZM431.444 68.024L429.348 60.12H430.58L432.644 68.024H431.444ZM438.568 69.16L437.448 60.12H438.632L439.592 68.072C440.424 68.0187 441.155 67.8693 441.784 67.624C442.424 67.3787 442.957 67.0267 443.384 66.568C443.811 66.1093 444.131 65.5387 444.344 64.856C444.557 64.1733 444.659 63.3733 444.648 62.456L444.632 60.12H445.864L445.88 62.408C445.891 63.9227 445.624 65.176 445.08 66.168C444.547 67.16 443.736 67.9067 442.648 68.408C441.56 68.8987 440.2 69.1493 438.568 69.16ZM439.064 65.704L438.776 64.84C439.352 64.5733 439.805 64.2907 440.136 63.992C440.467 63.6933 440.707 63.3147 440.856 62.856C441.005 62.3973 441.085 61.8107 441.096 61.096L441.112 60.152H442.296L442.28 61.08C442.269 61.88 442.157 62.568 441.944 63.144C441.731 63.72 441.389 64.2107 440.92 64.616C440.461 65.0213 439.843 65.384 439.064 65.704Z" fill="#0D2A47"/>
</svg>
