<?xml version="1.0" encoding="UTF-8"?>
<svg id="Layer_2" xmlns="http://www.w3.org/2000/svg" viewBox="0 0 142.77 102.85">
  <defs>
    <style>
      .cls-1 {
        fill: #0e2b47;
      }
    </style>
  </defs>
  <g id="Graphic_Elements">
    <path class="cls-1" d="M78.39,16.71c.05,1.72-.52,3.4-.72,5.13-.3,2.53-.18,5.08-.18,7.62,0,12.38.01,24.77.02,37.15,0,.44,0,.87.01,1.31.12,2.43.9,3.2,3.35,3.3,1.4.06,2.05.68,2.03,2.12-.03,1.89-.12,3.78-.26,5.66-.07.95.31,1.26,1.18,1.18.36-.03.72-.06,1.09-.06,1.84-.02,2.79.61,3.02,1.98.35,2.09-.38,3.57-2.13,4.1-1.64.49-3.33.72-5.03.9-1.05.11-2.09.26-3.02.8-1.68.98-2.21,2.65-1.33,4.37.28.55.68,1.03,1,1.56,1.94,3.19.94,6.58-2.43,8.2-3.93,1.89-8.6.48-10.57-3.2-1.05-1.96-.89-3.53.63-5.18.91-.99,1.4-2.09,1.37-3.43-.03-1.65-.7-2.48-2.37-2.7-2.27-.3-4.51-.72-6.75-1.19-2.3-.49-3.11-1.68-2.78-3.99.2-1.42,1.02-2.16,2.48-2.24,2.95-.16,3.16-.44,2.73-3.42-.14-.97-.3-1.94-.34-2.92-.08-1.7.77-2.57,2.46-2.61,2.42-.06,2.89-.55,2.89-3,0-14.78,0-29.56.01-44.34,0-1.33-.5-2.55-.63-3.85-.39-3.88.61-7.48,2.14-10.98,1.18-2.69,2.42-5.34,3.63-8.01C70.14.42,70.47,0,71.1,0c.64,0,1.09.35,1.36.93.55,1.22,1.09,2.45,1.64,3.67,1.11,2.48,2.21,4.96,3.34,7.43.68,1.48,1.04,3.01.95,4.68ZM69.94,78.63c-.7.04-2,.1-3.3.18-.46.03-.86.19-.98.7-.11.44.09.77.46,1.01.97.63,1.92,1.29,2.99,1.75,2.67,1.15,4.78-.04,6.77-1.81.21-.18.33-.48.44-.74.24-.56.24-.89-.57-.96-1.74-.14-3.47-.22-5.82-.14Z"/>
    <path class="cls-1" d="M82.41,62.11c0-1.2.05-2.4,0-3.59-.13-2.76.68-4.08,3.32-5.03,3.85-1.39,7.72-2.73,11.58-4.08,10.06-3.49,20.17-6.84,30.12-10.66.51-.19,1.03-.35,1.56-.48,1.18-.29,2.25-.13,3.06.86.76.93.47,1.92.05,2.87-.89,1.98-1.8,3.96-2.72,5.93-.85,1.84-1.77,3.65-2.57,5.51-.78,1.82-2.12,2.86-3.99,3.36-5.38,1.46-10.82,2.73-16.11,4.53-.45.15-.89.3-1.34.46-1.54.54-1.55.55-.82,2.05.95,1.97,2.33,3.67,3.5,5.5,1.37,2.14,2.79,4.25,4.16,6.38.93,1.45.96,2.39.15,3.4-.96,1.18-2.38,1.66-3.81,1.01-7.83-3.53-15.9-6.47-23.78-9.89-1.73-.75-2.48-2.11-2.39-4,.07-1.38.01-2.76.01-4.14,0,0,.02,0,.03,0Z"/>
    <path class="cls-1" d="M82.39,40.54c0-1.62,0-2.89,0-4.16,0-2.72.88-4.05,3.42-5.06,4.71-1.88,9.43-3.72,14.14-5.62,12.1-4.87,24.07-10.03,35.96-15.4.76-.34,1.52-.68,2.34-.84,1.57-.31,2.89.13,3.89,1.37.92,1.14.72,2.4.14,3.59-1.72,3.59-3.48,7.17-5.23,10.74-.3.62-.72,1.19-.96,1.82-.94,2.44-2.81,3.77-5.23,4.51-7.02,2.18-14.02,4.42-20.97,6.85-7.73,2.7-15.42,5.49-23.13,8.23-.61.22-1.23.45-1.87.58-1.65.33-2.28-.17-2.45-1.85-.17-1.7-.03-3.41-.05-4.77Z"/>
    <path class="cls-1" d="M59.84,62.34c0,1.49-.01,2.98,0,4.47.03,2.24-.54,3.14-2.63,3.98-5.95,2.39-11.91,4.75-17.86,7.14-1.41.57-2.78,1.23-4.17,1.84-.63.28-1.26.54-1.97.6-2.14.17-3.53-1.49-2.96-3.55.29-1.07.88-1.98,1.48-2.89,2.26-3.42,4.49-6.86,6.8-10.24.51-.75.37-1.11-.33-1.52-.96-.56-2.03-.76-3.05-1.12-4.58-1.62-9.2-3.08-13.96-4.12-2.8-.62-4.77-2.35-5.84-5.05-1.22-3.06-2.74-5.99-4.17-8.96-.58-1.21-1.33-2.45-.2-3.73,1.21-1.36,2.69-1.18,4.21-.63,9.67,3.5,19.34,7,29.02,10.49,4.16,1.5,8.32,2.97,12.48,4.45,2.66.95,3.26,1.89,3.15,4.71-.06,1.38,0,2.76-.01,4.14Z"/>
    <path class="cls-1" d="M60,37.16c-.31,1.98-.24,4.56-.06,7.14.03.4.05.8.02,1.2-.1,1.44-.73,1.96-2.14,1.7-.53-.1-1.05-.28-1.56-.47-14.83-5.54-29.82-10.64-44.84-15.62-1.96-.65-3.28-1.68-4.2-3.57C5.06,23.1,2.73,18.76.41,14.41c-.57-1.06-.57-1.95.12-2.92.8-1.11,1.7-2.01,3.2-1.89.65.05,1.28.25,1.88.52,16.43,7.55,33.36,13.92,50.09,20.76.84.34,1.66.72,2.41,1.25,1.54,1.09,2.15,2.58,1.89,5.02Z"/>
  </g>
</svg>